# xmcd
#
# Track frame offsets:
#	150
#	14610
#	28472
#	44382
#	57129
#	73367
#	96092
#	110651
#	123326
#	138595
#	157498
#	176212
#
# Disc length: 2568 seconds
#
# Revision: 0
# Processed by: cddbd v1.4PL0 Copyright (c) Steve Scherf et al.
# Submitted via: audiograbber 1.81.01
#
DISCID=be0a060c
DTITLE=Drupi - I Grandi Successi Originali cd2
DYEAR=1900
DGENRE=pop
TTITLE0=In un motel
TTITLE1=Insieme noi
TTITLE2=Io sto bene insieme a te
TTITLE3=La mia via
TTITLE4=Due
TTITLE5=Mille lire
TTITLE6=Al mercato
TTITLE7=Bagno a mezzanotte
TTITLE8=Bella bellissima
TTITLE9=E già
TTITLE10=Era bella davvero
TTITLE11=Gola calda denti bianchi
EXTD=
EXTT0=
EXTT1=
EXTT2=
EXTT3=
EXTT4=
EXTT5=
EXTT6=
EXTT7=
EXTT8=
EXTT9=
EXTT10=
EXTT11=
PLAYORDER=
